<?xml version="1.0" encoding="UTF-8" standalone="no"?>
<!-- Created with Inkscape (http://www.inkscape.org/) -->

<svg
   xmlns:dc="http://purl.org/dc/elements/1.1/"
   xmlns:cc="http://creativecommons.org/ns#"
   xmlns:rdf="http://www.w3.org/1999/02/22-rdf-syntax-ns#"
   xmlns:svg="http://www.w3.org/2000/svg"
   xmlns="http://www.w3.org/2000/svg"
   xmlns:sodipodi="http://sodipodi.sourceforge.net/DTD/sodipodi-0.dtd"
   xmlns:inkscape="http://www.inkscape.org/namespaces/inkscape"
   width="64"
   height="64"
   viewBox="0 0 64.000001 64.000001"
   id="svg2"
   version="1.1"
   inkscape:version="0.91 r13725"
   sodipodi:docname="back.svg"
   inkscape:export-filename="/home/reinards/Projects/Games/Mobile/squane/assets/img/back.png"
   inkscape:export-xdpi="90"
   inkscape:export-ydpi="90">
  <defs
     id="defs4" />
  <sodipodi:namedview
     id="base"
     pagecolor="#ffffff"
     bordercolor="#666666"
     borderopacity="1.0"
     inkscape:pageopacity="0.0"
     inkscape:pageshadow="2"
     inkscape:zoom="5.6"
     inkscape:cx="22.145904"
     inkscape:cy="44.149379"
     inkscape:document-units="px"
     inkscape:current-layer="layer1"
     showgrid="false"
     units="px"
     inkscape:window-width="1317"
     inkscape:window-height="744"
     inkscape:window-x="49"
     inkscape:window-y="24"
     inkscape:window-maximized="1" />
  <metadata
     id="metadata7">
    <rdf:RDF>
      <cc:Work
         rdf:about="">
        <dc:format>image/svg+xml</dc:format>
        <dc:type
           rdf:resource="http://purl.org/dc/dcmitype/StillImage" />
        <dc:title></dc:title>
      </cc:Work>
    </rdf:RDF>
  </metadata>
  <g
     inkscape:label="Layer 1"
     inkscape:groupmode="layer"
     id="layer1"
     transform="translate(0,-988.36216)">
    <path
       style="color:#000000;clip-rule:nonzero;display:inline;overflow:visible;visibility:visible;opacity:1;isolation:auto;mix-blend-mode:normal;color-interpolation:sRGB;color-interpolation-filters:linearRGB;solid-color:#000000;solid-opacity:1;fill:#ffffff;fill-opacity:1;fill-rule:nonzero;stroke:none;stroke-width:1;stroke-linecap:round;stroke-linejoin:round;stroke-miterlimit:4;stroke-dasharray:none;stroke-dashoffset:0;stroke-opacity:1;color-rendering:auto;image-rendering:auto;shape-rendering:auto;text-rendering:auto;enable-background:accumulate"
       d="M 6.7851562 0 C 3.0258706 0 5.9211895e-16 3.0258706 0 6.7851562 L 0 57.214844 C 0 60.974129 3.0258706 64 6.7851562 64 L 57.214844 64 C 60.974129 64 64 60.974129 64 57.214844 L 64 6.7851562 C 64 3.0258706 60.974129 5.9211895e-16 57.214844 0 L 6.7851562 0 z M 39.589844 9.2988281 C 40.368044 9.2988281 41.14589 9.597062 41.742188 10.193359 C 42.934782 11.385954 42.934782 13.305452 41.742188 14.498047 L 24.761719 31.480469 L 41.548828 48.267578 C 42.741423 49.460173 42.741423 51.379671 41.548828 52.572266 C 40.356233 53.76486 38.436735 53.76486 37.244141 52.572266 L 18.320312 33.650391 C 17.127719 32.457796 17.127719 30.538298 18.320312 29.345703 C 18.326349 29.339667 18.33377 29.336053 18.339844 29.330078 C 18.399206 29.258903 18.448767 29.182093 18.515625 29.115234 L 37.4375 10.193359 C 38.033797 9.597062 38.811643 9.2988281 39.589844 9.2988281 z "
       transform="translate(0,988.36216)"
       id="rect3336" />
    <rect
       transform="matrix(-0.70710678,-0.70710678,0.70710678,-0.70710678,0,0)"
       ry="3.0443747"
       y="-746.46136"
       x="-727.92944"
       height="6.0887494"
       width="32.848919"
       id="rect4177"
       style="color:#000000;clip-rule:nonzero;display:inline;overflow:visible;visibility:visible;opacity:1;isolation:auto;mix-blend-mode:normal;color-interpolation:sRGB;color-interpolation-filters:linearRGB;solid-color:#000000;solid-opacity:1;fill:#333333;fill-opacity:1;fill-rule:nonzero;stroke:none;stroke-width:1;stroke-linecap:round;stroke-linejoin:round;stroke-miterlimit:4;stroke-dasharray:none;stroke-dashoffset:0;stroke-opacity:1;color-rendering:auto;image-rendering:auto;shape-rendering:auto;text-rendering:auto;enable-background:accumulate" />
    <rect
       style="color:#000000;clip-rule:nonzero;display:inline;overflow:visible;visibility:visible;opacity:1;isolation:auto;mix-blend-mode:normal;color-interpolation:sRGB;color-interpolation-filters:linearRGB;solid-color:#000000;solid-opacity:1;fill:#333333;fill-opacity:1;fill-rule:nonzero;stroke:none;stroke-width:1;stroke-linecap:round;stroke-linejoin:round;stroke-miterlimit:4;stroke-dasharray:none;stroke-dashoffset:0;stroke-opacity:1;color-rendering:auto;image-rendering:auto;shape-rendering:auto;text-rendering:auto;enable-background:accumulate"
       id="rect4179"
       width="32.848919"
       height="6.0887494"
       x="713.31305"
       y="-701.14417"
       ry="3.0443747"
       transform="matrix(-0.70710678,0.70710678,-0.70710678,-0.70710678,0,0)" />
  </g>
</svg>
